<mxfile host="Electron" agent="Mozilla/5.0 (Windows NT 10.0; Win64; x64) AppleWebKit/537.36 (KHTML, like Gecko) draw.io/26.1.1 Chrome/132.0.6834.210 Electron/34.3.3 Safari/537.36" version="26.1.1">
  <diagram name="Page-1" id="74e2e168-ea6b-b213-b513-2b3c1d86103e">
    <mxGraphModel dx="712" dy="835" grid="1" gridSize="10" guides="1" tooltips="1" connect="1" arrows="1" fold="1" page="1" pageScale="1" pageWidth="1100" pageHeight="850" background="none" math="0" shadow="0">
      <root>
        <mxCell id="0" />
        <mxCell id="1" parent="0" />
        <mxCell id="GawfQYYiUHtOzJbY6oql-2" value="&lt;b&gt;Endereço&lt;/b&gt;" style="html=1;whiteSpace=wrap;" parent="1" vertex="1">
          <mxGeometry x="170" y="200" width="110" height="50" as="geometry" />
        </mxCell>
        <mxCell id="GawfQYYiUHtOzJbY6oql-3" value="" style="endArrow=none;html=1;rounded=0;entryX=0.425;entryY=0.913;entryDx=0;entryDy=0;entryPerimeter=0;" parent="1" target="GawfQYYiUHtOzJbY6oql-4" edge="1">
          <mxGeometry width="50" height="50" relative="1" as="geometry">
            <mxPoint x="240" y="200" as="sourcePoint" />
            <mxPoint x="290" y="150" as="targetPoint" />
          </mxGeometry>
        </mxCell>
        <mxCell id="GawfQYYiUHtOzJbY6oql-4" value="&lt;b&gt;&lt;font style=&quot;color: light-dark(rgb(0, 0, 0), rgb(153, 0, 77));&quot;&gt;(PK)Nome_Bairro&lt;/font&gt;&lt;/b&gt;" style="text;html=1;align=center;verticalAlign=middle;resizable=0;points=[];autosize=1;strokeColor=none;fillColor=none;" parent="1" vertex="1">
          <mxGeometry x="240" y="90" width="120" height="30" as="geometry" />
        </mxCell>
        <mxCell id="GawfQYYiUHtOzJbY6oql-5" value="" style="endArrow=none;html=1;rounded=0;" parent="1" target="GawfQYYiUHtOzJbY6oql-6" edge="1">
          <mxGeometry width="50" height="50" relative="1" as="geometry">
            <mxPoint x="184.5" y="200" as="sourcePoint" />
            <mxPoint x="140" y="120" as="targetPoint" />
          </mxGeometry>
        </mxCell>
        <mxCell id="GawfQYYiUHtOzJbY6oql-6" value="Nome_Rua" style="text;html=1;align=center;verticalAlign=middle;resizable=0;points=[];autosize=1;strokeColor=none;fillColor=none;" parent="1" vertex="1">
          <mxGeometry x="100" y="90" width="80" height="30" as="geometry" />
        </mxCell>
        <mxCell id="GawfQYYiUHtOzJbY6oql-8" value="" style="endArrow=none;html=1;rounded=0;entryX=0.491;entryY=0.944;entryDx=0;entryDy=0;entryPerimeter=0;" parent="1" target="GawfQYYiUHtOzJbY6oql-9" edge="1">
          <mxGeometry width="50" height="50" relative="1" as="geometry">
            <mxPoint x="217.5" y="200" as="sourcePoint" />
            <mxPoint x="218" y="120" as="targetPoint" />
          </mxGeometry>
        </mxCell>
        <mxCell id="GawfQYYiUHtOzJbY6oql-9" value="Número" style="text;html=1;align=center;verticalAlign=middle;resizable=0;points=[];autosize=1;strokeColor=none;fillColor=none;" parent="1" vertex="1">
          <mxGeometry x="180" y="70" width="70" height="30" as="geometry" />
        </mxCell>
        <mxCell id="GawfQYYiUHtOzJbY6oql-12" value="&lt;b&gt;TEM&lt;/b&gt;" style="shape=rhombus;perimeter=rhombusPerimeter;whiteSpace=wrap;html=1;align=center;" parent="1" vertex="1">
          <mxGeometry x="370" y="195" width="120" height="60" as="geometry" />
        </mxCell>
        <mxCell id="GawfQYYiUHtOzJbY6oql-15" value="&lt;b&gt;Posto&lt;/b&gt;" style="whiteSpace=wrap;html=1;align=center;" parent="1" vertex="1">
          <mxGeometry x="580" y="200" width="110" height="50" as="geometry" />
        </mxCell>
        <mxCell id="GawfQYYiUHtOzJbY6oql-19" value="" style="endArrow=none;html=1;rounded=0;entryX=0.466;entryY=1.036;entryDx=0;entryDy=0;entryPerimeter=0;" parent="1" edge="1">
          <mxGeometry width="50" height="50" relative="1" as="geometry">
            <mxPoint x="650" y="200" as="sourcePoint" />
            <mxPoint x="701.5999999999999" y="121.08000000000004" as="targetPoint" />
          </mxGeometry>
        </mxCell>
        <mxCell id="GawfQYYiUHtOzJbY6oql-20" value="&lt;b&gt;&lt;font style=&quot;color: light-dark(rgb(0, 0, 0), rgb(153, 0, 77));&quot;&gt;(PK) Id_Posto&lt;/font&gt;&lt;/b&gt;" style="text;html=1;align=center;verticalAlign=middle;resizable=0;points=[];autosize=1;strokeColor=none;fillColor=none;" parent="1" vertex="1">
          <mxGeometry x="650" y="90" width="100" height="30" as="geometry" />
        </mxCell>
        <mxCell id="GawfQYYiUHtOzJbY6oql-21" value="" style="endArrow=none;html=1;rounded=0;" parent="1" target="GawfQYYiUHtOzJbY6oql-22" edge="1">
          <mxGeometry width="50" height="50" relative="1" as="geometry">
            <mxPoint x="609.5" y="200" as="sourcePoint" />
            <mxPoint x="580" y="120" as="targetPoint" />
          </mxGeometry>
        </mxCell>
        <mxCell id="GawfQYYiUHtOzJbY6oql-22" value="Nome_Posto" style="text;html=1;align=center;verticalAlign=middle;resizable=0;points=[];autosize=1;strokeColor=none;fillColor=none;" parent="1" vertex="1">
          <mxGeometry x="525" y="90" width="90" height="30" as="geometry" />
        </mxCell>
        <mxCell id="GawfQYYiUHtOzJbY6oql-23" value="(1)" style="text;html=1;align=center;verticalAlign=middle;resizable=0;points=[];autosize=1;strokeColor=none;fillColor=none;" parent="1" vertex="1">
          <mxGeometry x="285" y="200" width="40" height="30" as="geometry" />
        </mxCell>
        <mxCell id="GawfQYYiUHtOzJbY6oql-26" value="&lt;b&gt;PODE FAZER&lt;/b&gt;" style="shape=rhombus;perimeter=rhombusPerimeter;whiteSpace=wrap;html=1;align=center;" parent="1" vertex="1">
          <mxGeometry x="575" y="330" width="120" height="60" as="geometry" />
        </mxCell>
        <mxCell id="GawfQYYiUHtOzJbY6oql-28" value="&lt;b&gt;PESQUISA COMBSUTÍVEL&lt;/b&gt;" style="whiteSpace=wrap;html=1;align=center;" parent="1" vertex="1">
          <mxGeometry x="267.5" y="591" width="110" height="50" as="geometry" />
        </mxCell>
        <mxCell id="GawfQYYiUHtOzJbY6oql-30" value="(1)" style="text;html=1;align=center;verticalAlign=middle;resizable=0;points=[];autosize=1;strokeColor=none;fillColor=none;" parent="1" vertex="1">
          <mxGeometry x="635" y="255" width="40" height="30" as="geometry" />
        </mxCell>
        <mxCell id="GawfQYYiUHtOzJbY6oql-31" value="" style="endArrow=none;html=1;rounded=0;" parent="1" edge="1">
          <mxGeometry width="50" height="50" relative="1" as="geometry">
            <mxPoint x="377.5" y="603.9200000000001" as="sourcePoint" />
            <mxPoint x="447.5" y="535" as="targetPoint" />
          </mxGeometry>
        </mxCell>
        <mxCell id="GawfQYYiUHtOzJbY6oql-32" value="(N)" style="text;html=1;align=center;verticalAlign=middle;resizable=0;points=[];autosize=1;strokeColor=none;fillColor=none;" parent="1" vertex="1">
          <mxGeometry x="332.5" y="561" width="40" height="30" as="geometry" />
        </mxCell>
        <mxCell id="GawfQYYiUHtOzJbY6oql-33" value="&lt;b&gt;&lt;font style=&quot;color: light-dark(rgb(0, 0, 0), rgb(153, 0, 77));&quot;&gt;(PK) pesquisa_combustivel&lt;/font&gt;&lt;/b&gt;" style="text;html=1;align=center;verticalAlign=middle;resizable=0;points=[];autosize=1;strokeColor=none;fillColor=none;" parent="1" vertex="1">
          <mxGeometry x="445" y="521" width="180" height="30" as="geometry" />
        </mxCell>
        <mxCell id="GawfQYYiUHtOzJbY6oql-35" value="" style="endArrow=none;html=1;rounded=0;" parent="1" edge="1">
          <mxGeometry width="50" height="50" relative="1" as="geometry">
            <mxPoint x="377.5" y="604.46" as="sourcePoint" />
            <mxPoint x="462.5" y="625" as="targetPoint" />
          </mxGeometry>
        </mxCell>
        <mxCell id="GawfQYYiUHtOzJbY6oql-36" value="&lt;b&gt;valor&lt;/b&gt;" style="text;html=1;align=center;verticalAlign=middle;resizable=0;points=[];autosize=1;strokeColor=none;fillColor=none;" parent="1" vertex="1">
          <mxGeometry x="432.5" y="623" width="50" height="30" as="geometry" />
        </mxCell>
        <mxCell id="GawfQYYiUHtOzJbY6oql-38" value="&lt;b&gt;PESQUISA&lt;/b&gt;" style="whiteSpace=wrap;html=1;align=center;" parent="1" vertex="1">
          <mxGeometry x="260" y="355" width="120" height="68" as="geometry" />
        </mxCell>
        <mxCell id="GawfQYYiUHtOzJbY6oql-39" value="" style="endArrow=none;html=1;rounded=0;entryX=0.425;entryY=0.913;entryDx=0;entryDy=0;entryPerimeter=0;" parent="1" edge="1">
          <mxGeometry width="50" height="50" relative="1" as="geometry">
            <mxPoint x="150" y="330" as="sourcePoint" />
            <mxPoint x="260" y="356" as="targetPoint" />
          </mxGeometry>
        </mxCell>
        <mxCell id="GawfQYYiUHtOzJbY6oql-40" value="" style="endArrow=none;html=1;rounded=0;entryX=0.425;entryY=0.913;entryDx=0;entryDy=0;entryPerimeter=0;" parent="1" edge="1">
          <mxGeometry width="50" height="50" relative="1" as="geometry">
            <mxPoint x="140" y="390" as="sourcePoint" />
            <mxPoint x="260" y="365" as="targetPoint" />
          </mxGeometry>
        </mxCell>
        <mxCell id="GawfQYYiUHtOzJbY6oql-41" value="" style="endArrow=none;html=1;rounded=0;entryX=0.425;entryY=0.913;entryDx=0;entryDy=0;entryPerimeter=0;" parent="1" edge="1">
          <mxGeometry width="50" height="50" relative="1" as="geometry">
            <mxPoint x="160" y="450" as="sourcePoint" />
            <mxPoint x="260" y="375" as="targetPoint" />
            <Array as="points">
              <mxPoint x="200" y="430" />
            </Array>
          </mxGeometry>
        </mxCell>
        <mxCell id="GawfQYYiUHtOzJbY6oql-43" value="&lt;b&gt;&lt;font style=&quot;color: light-dark(rgb(0, 0, 0), rgb(153, 0, 77));&quot;&gt;(PK)id_pesquisa&lt;/font&gt;&lt;/b&gt;" style="text;html=1;align=center;verticalAlign=middle;resizable=0;points=[];autosize=1;strokeColor=none;fillColor=none;" parent="1" vertex="1">
          <mxGeometry x="100" y="300" width="120" height="30" as="geometry" />
        </mxCell>
        <mxCell id="GawfQYYiUHtOzJbY6oql-45" value="data_pesquisa" style="text;html=1;align=center;verticalAlign=middle;resizable=0;points=[];autosize=1;strokeColor=none;fillColor=none;" parent="1" vertex="1">
          <mxGeometry x="110" y="450" width="100" height="30" as="geometry" />
        </mxCell>
        <mxCell id="GawfQYYiUHtOzJbY6oql-49" value="&lt;b&gt;(N)&lt;/b&gt;" style="text;html=1;align=center;verticalAlign=middle;resizable=0;points=[];autosize=1;strokeColor=none;fillColor=none;" parent="1" vertex="1">
          <mxGeometry x="382.5" y="355" width="40" height="30" as="geometry" />
        </mxCell>
        <mxCell id="F0ga9G1TQXhSCBJtLVwH-3" value="" style="endArrow=none;html=1;rounded=0;entryX=0;entryY=0.5;entryDx=0;entryDy=0;exitX=0.028;exitY=0.852;exitDx=0;exitDy=0;exitPerimeter=0;" parent="1" source="GawfQYYiUHtOzJbY6oql-23" target="GawfQYYiUHtOzJbY6oql-12" edge="1">
          <mxGeometry width="50" height="50" relative="1" as="geometry">
            <mxPoint x="280" y="230" as="sourcePoint" />
            <mxPoint x="330" y="180" as="targetPoint" />
          </mxGeometry>
        </mxCell>
        <mxCell id="F0ga9G1TQXhSCBJtLVwH-4" value="" style="endArrow=none;html=1;rounded=0;entryX=0;entryY=0.5;entryDx=0;entryDy=0;exitX=0.028;exitY=0.852;exitDx=0;exitDy=0;exitPerimeter=0;" parent="1" edge="1">
          <mxGeometry width="50" height="50" relative="1" as="geometry">
            <mxPoint x="490" y="225.5" as="sourcePoint" />
            <mxPoint x="579" y="224.5" as="targetPoint" />
          </mxGeometry>
        </mxCell>
        <mxCell id="F0ga9G1TQXhSCBJtLVwH-5" value="" style="endArrow=none;html=1;rounded=0;entryX=0.5;entryY=0;entryDx=0;entryDy=0;exitX=0.5;exitY=1;exitDx=0;exitDy=0;" parent="1" source="GawfQYYiUHtOzJbY6oql-15" target="GawfQYYiUHtOzJbY6oql-26" edge="1">
          <mxGeometry width="50" height="50" relative="1" as="geometry">
            <mxPoint x="570" y="285" as="sourcePoint" />
            <mxPoint x="659" y="284" as="targetPoint" />
          </mxGeometry>
        </mxCell>
        <mxCell id="F0ga9G1TQXhSCBJtLVwH-13" value="" style="endArrow=none;html=1;rounded=0;exitX=1;exitY=0.5;exitDx=0;exitDy=0;entryX=0;entryY=0.5;entryDx=0;entryDy=0;" parent="1" source="GawfQYYiUHtOzJbY6oql-38" target="GawfQYYiUHtOzJbY6oql-26" edge="1">
          <mxGeometry width="50" height="50" relative="1" as="geometry">
            <mxPoint x="380" y="388" as="sourcePoint" />
            <mxPoint x="410" y="389" as="targetPoint" />
          </mxGeometry>
        </mxCell>
        <mxCell id="133wZgJgqL4NfVruzGtk-12" value="&lt;b&gt;Combustivel&lt;/b&gt;" style="html=1;whiteSpace=wrap;" vertex="1" parent="1">
          <mxGeometry x="267.5" y="799" width="110" height="50" as="geometry" />
        </mxCell>
        <mxCell id="133wZgJgqL4NfVruzGtk-13" value="" style="endArrow=none;html=1;rounded=0;" edge="1" parent="1" target="133wZgJgqL4NfVruzGtk-14">
          <mxGeometry width="50" height="50" relative="1" as="geometry">
            <mxPoint x="338.5" y="855" as="sourcePoint" />
            <mxPoint x="387.5" y="749" as="targetPoint" />
          </mxGeometry>
        </mxCell>
        <mxCell id="133wZgJgqL4NfVruzGtk-14" value="&lt;font color=&quot;#99004d&quot;&gt;&lt;b&gt;(PK)id_combustivel&lt;/b&gt;&lt;/font&gt;" style="text;html=1;align=center;verticalAlign=middle;resizable=0;points=[];autosize=1;strokeColor=none;fillColor=none;" vertex="1" parent="1">
          <mxGeometry x="277.5" y="926" width="140" height="30" as="geometry" />
        </mxCell>
        <mxCell id="133wZgJgqL4NfVruzGtk-15" value="" style="endArrow=none;html=1;rounded=0;exitX=0;exitY=1;exitDx=0;exitDy=0;" edge="1" parent="1" target="133wZgJgqL4NfVruzGtk-16" source="133wZgJgqL4NfVruzGtk-12">
          <mxGeometry width="50" height="50" relative="1" as="geometry">
            <mxPoint x="282" y="799" as="sourcePoint" />
            <mxPoint x="237.5" y="719" as="targetPoint" />
            <Array as="points">
              <mxPoint x="247.5" y="865" />
            </Array>
          </mxGeometry>
        </mxCell>
        <mxCell id="133wZgJgqL4NfVruzGtk-16" value="nome_combustivel" style="text;html=1;align=center;verticalAlign=middle;resizable=0;points=[];autosize=1;strokeColor=none;fillColor=none;" vertex="1" parent="1">
          <mxGeometry x="157.5" y="885" width="120" height="30" as="geometry" />
        </mxCell>
        <mxCell id="133wZgJgqL4NfVruzGtk-21" value="" style="endArrow=none;html=1;rounded=0;" edge="1" parent="1">
          <mxGeometry width="50" height="50" relative="1" as="geometry">
            <mxPoint x="690" y="218.92" as="sourcePoint" />
            <mxPoint x="770" y="190" as="targetPoint" />
          </mxGeometry>
        </mxCell>
        <mxCell id="133wZgJgqL4NfVruzGtk-22" value="&lt;font color=&quot;#99004d&quot;&gt;&lt;b&gt;(FK) id_endereco&lt;/b&gt;&lt;/font&gt;" style="text;html=1;align=center;verticalAlign=middle;resizable=0;points=[];autosize=1;strokeColor=none;fillColor=none;" vertex="1" parent="1">
          <mxGeometry x="770" y="170" width="120" height="30" as="geometry" />
        </mxCell>
        <mxCell id="133wZgJgqL4NfVruzGtk-25" value="&lt;font color=&quot;#99004d&quot;&gt;&lt;b&gt;(FK) id_combustivel&lt;/b&gt;&lt;/font&gt;" style="text;html=1;align=center;verticalAlign=middle;resizable=0;points=[];autosize=1;strokeColor=none;fillColor=none;" vertex="1" parent="1">
          <mxGeometry x="115" y="670" width="140" height="30" as="geometry" />
        </mxCell>
        <mxCell id="133wZgJgqL4NfVruzGtk-27" value="" style="endArrow=none;html=1;rounded=0;entryX=0.5;entryY=1;entryDx=0;entryDy=0;exitX=0.5;exitY=0;exitDx=0;exitDy=0;" edge="1" parent="1" source="GawfQYYiUHtOzJbY6oql-28" target="GawfQYYiUHtOzJbY6oql-38">
          <mxGeometry width="50" height="50" relative="1" as="geometry">
            <mxPoint x="330" y="530" as="sourcePoint" />
            <mxPoint x="435" y="440" as="targetPoint" />
          </mxGeometry>
        </mxCell>
        <mxCell id="133wZgJgqL4NfVruzGtk-28" value="" style="endArrow=none;html=1;rounded=0;entryX=0.5;entryY=1;entryDx=0;entryDy=0;" edge="1" parent="1" source="133wZgJgqL4NfVruzGtk-12">
          <mxGeometry width="50" height="50" relative="1" as="geometry">
            <mxPoint x="337.5" y="753" as="sourcePoint" />
            <mxPoint x="322.5" y="641" as="targetPoint" />
          </mxGeometry>
        </mxCell>
        <mxCell id="133wZgJgqL4NfVruzGtk-30" value="&lt;b&gt;PODE FAZER&lt;/b&gt;" style="shape=rhombus;perimeter=rhombusPerimeter;whiteSpace=wrap;html=1;align=center;" vertex="1" parent="1">
          <mxGeometry x="262.5" y="465" width="120" height="60" as="geometry" />
        </mxCell>
        <mxCell id="133wZgJgqL4NfVruzGtk-31" value="" style="endArrow=none;html=1;rounded=0;exitX=0.507;exitY=-0.067;exitDx=0;exitDy=0;exitPerimeter=0;" edge="1" parent="1" source="133wZgJgqL4NfVruzGtk-25">
          <mxGeometry width="50" height="50" relative="1" as="geometry">
            <mxPoint x="197.5" y="672.46" as="sourcePoint" />
            <mxPoint x="267.5" y="603.54" as="targetPoint" />
          </mxGeometry>
        </mxCell>
        <mxCell id="133wZgJgqL4NfVruzGtk-32" value="&lt;font color=&quot;#99004d&quot;&gt;&lt;b&gt;(FK)id_posto&lt;/b&gt;&lt;/font&gt;" style="text;html=1;align=center;verticalAlign=middle;resizable=0;points=[];autosize=1;strokeColor=none;fillColor=none;" vertex="1" parent="1">
          <mxGeometry x="90" y="385" width="100" height="30" as="geometry" />
        </mxCell>
        <mxCell id="133wZgJgqL4NfVruzGtk-33" value="&lt;b&gt;(1)&lt;/b&gt;" style="text;html=1;align=center;verticalAlign=middle;resizable=0;points=[];autosize=1;strokeColor=none;fillColor=none;" vertex="1" parent="1">
          <mxGeometry x="335" y="425" width="40" height="30" as="geometry" />
        </mxCell>
        <mxCell id="133wZgJgqL4NfVruzGtk-34" value="(N)" style="text;html=1;align=center;verticalAlign=middle;resizable=0;points=[];autosize=1;strokeColor=none;fillColor=none;" vertex="1" parent="1">
          <mxGeometry x="540" y="195" width="40" height="30" as="geometry" />
        </mxCell>
        <mxCell id="133wZgJgqL4NfVruzGtk-35" value="(1)" style="text;html=1;align=center;verticalAlign=middle;resizable=0;points=[];autosize=1;strokeColor=none;fillColor=none;" vertex="1" parent="1">
          <mxGeometry x="325" y="641" width="40" height="30" as="geometry" />
        </mxCell>
        <mxCell id="133wZgJgqL4NfVruzGtk-36" value="(N)" style="text;html=1;align=center;verticalAlign=middle;resizable=0;points=[];autosize=1;strokeColor=none;fillColor=none;" vertex="1" parent="1">
          <mxGeometry x="325" y="769" width="40" height="30" as="geometry" />
        </mxCell>
      </root>
    </mxGraphModel>
  </diagram>
</mxfile>
